<svg width="234" height="234" viewBox="0 0 234 234" fill="none" xmlns="http://www.w3.org/2000/svg">
  <style>
    .tpl{ fill: black }
    @media (prefers-color-scheme: dark) {
      .tpl{ fill: white }
    }
  </style>
  <path d="M187.197 10H233.994L117.001 224.805L0.0078125 10H89.5077L117.001 59.81L143.91 10H187.197Z" fill="#41B883"/>
  <path d="M0.0078125 10L117.001 224.805L233.994 10H187.197L117.001 138.883L46.2202 10H0.0078125Z" fill="#41B883"/>
  <path d="M46.2188 10L117 139.506L187.196 10H143.908L117 59.81L89.5063 10H46.2188Z" fill="#35495E"/>
  <path class="tpl" d="M210.562 138.833V153.39H132.438V138.833H210.562ZM210.562 131.555H132.438C130.365 131.555 128.378 132.322 126.913 133.686C125.448 135.051 124.625 136.903 124.625 138.833V153.39C124.625 155.32 125.448 157.171 126.913 158.536C128.378 159.901 130.365 160.668 132.438 160.668H210.562C212.635 160.668 214.622 159.901 216.087 158.536C217.552 157.171 218.375 155.32 218.375 153.39V138.833C218.375 136.903 217.552 135.051 216.087 133.686C214.622 132.322 212.635 131.555 210.562 131.555ZM148.062 175.225V211.616H132.438V175.225H148.062ZM148.062 167.946H132.438C130.365 167.946 128.378 168.713 126.913 170.078C125.448 171.443 124.625 173.294 124.625 175.225V211.616C124.625 213.546 125.448 215.398 126.913 216.763C128.378 218.128 130.365 218.894 132.438 218.894H148.062C150.135 218.894 152.122 218.128 153.587 216.763C155.052 215.398 155.875 213.546 155.875 211.616V175.225C155.875 173.294 155.052 171.443 153.587 170.078C152.122 168.713 150.135 167.946 148.062 167.946ZM210.562 175.225V211.616H171.5V175.225H210.562ZM210.562 167.946H171.5C169.428 167.946 167.441 168.713 165.976 170.078C164.511 171.443 163.688 173.294 163.688 175.225V211.616C163.688 213.546 164.511 215.398 165.976 216.763C167.441 218.128 169.428 218.894 171.5 218.894H210.562C212.635 218.894 214.622 218.128 216.087 216.763C217.552 215.398 218.375 213.546 218.375 211.616V175.225C218.375 173.294 217.552 171.443 216.087 170.078C214.622 168.713 212.635 167.946 210.562 167.946Z"/>
</svg>
